<?xml version="1.0" standalone="no"?>
<!DOCTYPE svg PUBLIC "-//W3C//DTD SVG 20010904//EN"
 "http://www.w3.org/TR/2001/REC-SVG-20010904/DTD/svg10.dtd">
<svg version="1.0" xmlns="http://www.w3.org/2000/svg"
 width="27.000000pt" height="26.000000pt" viewBox="0 0 27.000000 26.000000"
 preserveAspectRatio="xMidYMid meet">

<g transform="translate(0.000000,26.000000) scale(0.100000,-0.100000)"
fill="#000000" stroke="none">
<path d="M24 237 c-3 -8 -4 -49 -2 -93 l3 -79 90 -3 c76 -2 93 -6 113 -24 l23
-22 -3 114 -3 115 -108 3 c-84 2 -109 0 -113 -11z m150 -39 c8 -13 8 -23 -1
-36 -7 -12 -8 -24 -2 -33 13 -20 11 -29 -5 -29 -8 0 -18 9 -21 20 -3 11 -11
20 -16 20 -5 0 -9 -9 -9 -20 0 -11 -7 -20 -15 -20 -12 0 -15 13 -15 61 l0 60
36 -3 c22 -2 42 -10 48 -20z"/>
<path d="M120 185 c0 -8 7 -15 15 -15 8 0 15 7 15 15 0 8 -7 15 -15 15 -8 0
-15 -7 -15 -15z"/>
</g>
</svg>
