<?xml version="1.0" standalone="no"?>
<!DOCTYPE svg PUBLIC "-//W3C//DTD SVG 20010904//EN"
 "http://www.w3.org/TR/2001/REC-SVG-20010904/DTD/svg10.dtd">
<svg version="1.0" xmlns="http://www.w3.org/2000/svg"
 width="500.000000pt" height="500.000000pt" viewBox="0 0 500.000000 500.000000"
 preserveAspectRatio="xMidYMid meet">

<g transform="translate(0.000000,500.000000) scale(0.100000,-0.100000)"
fill="#000000" stroke="none">
<path d="M2264 4445 c-77 -17 -196 -67 -243 -103 -20 -15 -268 -261 -551 -547
-283 -285 -713 -717 -955 -960 -415 -414 -443 -445 -479 -517 -38 -74 -38 -78
-34 -165 6 -135 28 -172 200 -350 393 -406 1158 -1163 1208 -1195 72 -46 120
-61 200 -61 80 -1 160 22 225 64 28 18 481 463 1012 993 872 872 964 967 993
1026 18 36 34 67 36 69 1 2 49 -8 106 -23 475 -120 880 -32 991 214 14 30 22
74 25 132 7 142 -35 248 -168 419 -83 107 -220 215 -480 382 -67 42 -211 110
-300 142 -138 48 -150 55 -150 84 0 35 -27 125 -52 175 -30 60 -103 131 -161
159 -107 50 -156 56 -547 62 -201 3 -466 7 -590 10 -166 3 -241 0 -286 -10z
m864 -591 c62 -31 134 -102 161 -158 11 -23 23 -70 27 -106 4 -36 11 -71 17
-78 17 -22 233 -151 313 -188 125 -57 234 -96 249 -90 13 4 15 41 15 216 0
115 2 210 5 210 5 0 222 -106 300 -147 50 -26 128 -79 175 -119 176 -150 280
-274 280 -333 0 -104 -277 -137 -585 -70 -83 18 -294 85 -433 137 -73 28 -211
104 -315 173 -49 33 -90 59 -93 59 -2 0 -28 -20 -58 -44 -145 -118 -370 -69
-459 98 -18 35 -22 58 -22 151 0 94 3 116 22 151 73 137 268 204 401 138z"/>
</g>
</svg>
