<?xml version="1.0" standalone="no"?>
<!DOCTYPE svg PUBLIC "-//W3C//DTD SVG 20010904//EN"
 "http://www.w3.org/TR/2001/REC-SVG-20010904/DTD/svg10.dtd">
<svg version="1.0" xmlns="http://www.w3.org/2000/svg"
 width="18.000000pt" height="20.000000pt" viewBox="0 0 18.000000 20.000000"
 preserveAspectRatio="xMidYMid meet">

<g transform="translate(0.000000,20.000000) scale(0.100000,-0.100000)"
fill="#000000" stroke="none">
<path d="M17 164 c-4 -4 -7 -39 -7 -77 0 -56 3 -67 13 -59 7 6 42 12 77 14
l65 3 0 60 0 60 -70 3 c-39 1 -74 0 -78 -4z m101 -37 c3 -12 -4 -20 -17 -24
-12 -3 -21 -12 -21 -19 0 -8 -4 -14 -10 -14 -5 0 -10 18 -10 41 0 38 2 40 27
37 17 -2 29 -10 31 -21z"/>
<path d="M80 126 c0 -9 5 -16 10 -16 6 0 10 4 10 9 0 6 -4 13 -10 16 -5 3 -10
-1 -10 -9z"/>
</g>
</svg>
