<?xml version="1.0" standalone="no"?>
<!DOCTYPE svg PUBLIC "-//W3C//DTD SVG 20010904//EN"
 "http://www.w3.org/TR/2001/REC-SVG-20010904/DTD/svg10.dtd">
<svg version="1.0" xmlns="http://www.w3.org/2000/svg"
 width="512.000000pt" height="512.000000pt" viewBox="0 0 512.000000 512.000000"
 preserveAspectRatio="xMidYMid meet">

<g transform="translate(0.000000,512.000000) scale(0.100000,-0.100000)"
fill="#000000" stroke="none">
<path d="M3353 4465 c-201 -36 -383 -134 -524 -283 -359 -375 -357 -956 5
-1330 169 -176 393 -276 641 -289 455 -23 853 273 977 726 31 110 31 352 0
462 -103 377 -397 649 -769 714 -102 18 -232 18 -330 0z"/>
<path d="M1305 4149 c-221 -43 -405 -163 -525 -340 -97 -141 -134 -268 -134
-449 -1 -225 75 -410 229 -565 154 -154 340 -230 565 -230 225 0 411 76 565
230 154 154 230 340 230 565 0 174 -36 297 -125 433 -112 173 -271 287 -480
344 -68 18 -258 25 -325 12z"/>
<path d="M1425 2234 c-16 -2 -73 -9 -125 -15 -110 -13 -292 -57 -394 -95 -403
-152 -705 -458 -845 -856 -116 -332 -62 -540 157 -608 61 -19 93 -20 756 -20
l692 0 -29 87 c-76 228 -29 569 118 863 89 178 225 352 382 491 40 35 69 66
65 70 -11 11 -153 46 -262 64 -90 16 -446 29 -515 19z"/>
<path d="M3345 2234 c-16 -2 -73 -9 -125 -15 -110 -13 -292 -57 -394 -95 -403
-152 -705 -458 -845 -856 -116 -332 -62 -540 157 -608 63 -20 94 -20 1382 -20
1288 0 1319 0 1382 20 219 68 273 276 157 608 -120 342 -369 626 -687 786
-155 78 -326 131 -518 162 -94 14 -445 27 -509 18z"/>
</g>
</svg>
